<svg xmlns="http://www.w3.org/2000/svg" viewBox="0 0 512 512" role="img" aria-label="Verstehen">
<title>Verstehen</title>
<defs>

<filter id="shadow" x="-30%" y="-30%" width="160%" height="180%">
  <feDropShadow dx="0" dy="14" stdDeviation="13" flood-color="#001a3a" flood-opacity=".28"/>
</filter>
<filter id="soft" x="-30%" y="-30%" width="160%" height="180%">
  <feDropShadow dx="0" dy="6" stdDeviation="6" flood-color="#001a3a" flood-opacity=".22"/>
</filter>
<linearGradient id="whiteGloss" x1="0" y1="0" x2="0" y2="1">
  <stop offset="0" stop-color="#fff" stop-opacity=".85"/>
  <stop offset=".55" stop-color="#fff" stop-opacity=".15"/>
  <stop offset="1" stop-color="#fff" stop-opacity="0"/>
</linearGradient>

<linearGradient id="accent" x1="0" y1="0" x2="1" y2="1">
  <stop offset="0" stop-color="#1b8bd5"/><stop offset="1" stop-color="#05366d"/>
</linearGradient>

</defs>

<g filter="url(#shadow)" fill="#fff" stroke="#0b67b2" stroke-width="18" stroke-linecap="round" stroke-linejoin="round">
<path d="M245 100c-30-45-98-23-95 31-51-4-69 64-27 88-42 34-12 103 41 91-5 53 60 74 91 33"/>
<path d="M267 100c30-45 98-23 95 31 51-4 69 64 27 88 42 34 12 103-41 91 5 53-60 74-91 33"/>
<path d="M256 103v257M167 175c29-3 49 12 53 38M345 175c-29-3-49 12-53 38M173 282c31 4 51-12 58-39M339 282c-31 4-51-12-58-39"/>
</g>

</svg>
