<svg xmlns="http://www.w3.org/2000/svg" viewBox="0 0 512 512" role="img" aria-label="Lerngruppe">
<title>Lerngruppe</title>
<defs>

<filter id="shadow" x="-30%" y="-30%" width="160%" height="180%">
  <feDropShadow dx="0" dy="14" stdDeviation="13" flood-color="#001a3a" flood-opacity=".28"/>
</filter>
<filter id="soft" x="-30%" y="-30%" width="160%" height="180%">
  <feDropShadow dx="0" dy="6" stdDeviation="6" flood-color="#001a3a" flood-opacity=".22"/>
</filter>
<linearGradient id="whiteGloss" x1="0" y1="0" x2="0" y2="1">
  <stop offset="0" stop-color="#fff" stop-opacity=".85"/>
  <stop offset=".55" stop-color="#fff" stop-opacity=".15"/>
  <stop offset="1" stop-color="#fff" stop-opacity="0"/>
</linearGradient>

<linearGradient id="panel" x1="0" y1="0" x2="1" y2="1">
  <stop offset="0" stop-color="#ffffff"/>
  <stop offset="1" stop-color="#eaf2f9"/>
</linearGradient>
<linearGradient id="accent" x1="0" y1="0" x2="1" y2="1">
  <stop offset="0" stop-color="#0B67B2"/>
  <stop offset="1" stop-color="#053a73"/>
</linearGradient>

</defs>

<g filter="url(#shadow)">
  <rect x="42" y="42" width="428" height="428" rx="54" fill="url(#panel)" stroke="#d5e0ea" stroke-width="4"/>
  <path d="M76 88c92-37 238-48 352 12" fill="none" stroke="#fff" stroke-width="18" stroke-linecap="round" opacity=".75"/>

<g transform="translate(68 106)">
  <ellipse cx="188" cy="272" rx="160" ry="28" fill="#052b57" opacity=".16"/>
  <g>
    <circle cx="94" cy="105" r="45" fill="#0c69b4"/>
    <path d="M28 236c0-55 28-89 66-89s66 34 66 89v30H28z" fill="#0c69b4" stroke="#06417d" stroke-width="7"/>
  </g>
  <g>
    <circle cx="188" cy="80" r="50" fill="#ffc400"/>
    <path d="M112 238c0-62 31-101 76-101s76 39 76 101v35H112z" fill="#ffc400" stroke="#dd9700" stroke-width="7"/>
  </g>
  <g>
    <circle cx="282" cy="105" r="45" fill="#15b7b1"/>
    <path d="M216 236c0-55 28-89 66-89s66 34 66 89v30H216z" fill="#15b7b1" stroke="#087f7c" stroke-width="7"/>
  </g>
</g>

</g>

</svg>
