<svg xmlns="http://www.w3.org/2000/svg" viewBox="0 0 512 512" role="img" aria-label="Notizbuch">
<title>Notizbuch</title>
<defs>

<filter id="shadow" x="-30%" y="-30%" width="160%" height="180%">
  <feDropShadow dx="0" dy="14" stdDeviation="13" flood-color="#001a3a" flood-opacity=".28"/>
</filter>
<filter id="soft" x="-30%" y="-30%" width="160%" height="180%">
  <feDropShadow dx="0" dy="6" stdDeviation="6" flood-color="#001a3a" flood-opacity=".22"/>
</filter>
<linearGradient id="whiteGloss" x1="0" y1="0" x2="0" y2="1">
  <stop offset="0" stop-color="#fff" stop-opacity=".85"/>
  <stop offset=".55" stop-color="#fff" stop-opacity=".15"/>
  <stop offset="1" stop-color="#fff" stop-opacity="0"/>
</linearGradient>

<linearGradient id="panel" x1="0" y1="0" x2="1" y2="1">
  <stop offset="0" stop-color="#ffffff"/>
  <stop offset="1" stop-color="#eaf2f9"/>
</linearGradient>
<linearGradient id="accent" x1="0" y1="0" x2="1" y2="1">
  <stop offset="0" stop-color="#0B67B2"/>
  <stop offset="1" stop-color="#053a73"/>
</linearGradient>

</defs>

<g filter="url(#shadow)">
  <rect x="42" y="42" width="428" height="428" rx="54" fill="url(#panel)" stroke="#d5e0ea" stroke-width="4"/>
  <path d="M76 88c92-37 238-48 352 12" fill="none" stroke="#fff" stroke-width="18" stroke-linecap="round" opacity=".75"/>

<g transform="translate(107 75)">
  <ellipse cx="150" cy="340" rx="135" ry="22" fill="#052b57" opacity=".15"/>
  <rect x="41" y="17" width="230" height="313" rx="22" fill="url(#accent)" stroke="#063a72" stroke-width="9"/>
  <rect x="74" y="17" width="197" height="313" rx="18" fill="#0a5aa4" opacity=".45"/>
  <g fill="#e7b400">
    <rect x="262" y="70" width="28" height="42" rx="5"/>
    <rect x="262" y="127" width="28" height="42" rx="5" fill="#0eb6af"/>
    <rect x="262" y="184" width="28" height="42" rx="5" fill="#7a2b98"/>
  </g>
  <g fill="none" stroke="#d8eaff" stroke-width="7">
    <line x1="33" y1="49" x2="54" y2="49"/><line x1="33" y1="91" x2="54" y2="91"/>
    <line x1="33" y1="133" x2="54" y2="133"/><line x1="33" y1="175" x2="54" y2="175"/>
    <line x1="33" y1="217" x2="54" y2="217"/><line x1="33" y1="259" x2="54" y2="259"/>
  </g>
  <rect x="117" y="58" width="83" height="11" rx="5" fill="#b8cee3"/>
</g>

</g>

</svg>
