<svg xmlns="http://www.w3.org/2000/svg" viewBox="0 0 512 512" role="img" aria-label="Rakete">
<title>Rakete</title>
<defs>

<filter id="shadow" x="-30%" y="-30%" width="160%" height="180%">
  <feDropShadow dx="0" dy="14" stdDeviation="13" flood-color="#001a3a" flood-opacity=".28"/>
</filter>
<filter id="soft" x="-30%" y="-30%" width="160%" height="180%">
  <feDropShadow dx="0" dy="6" stdDeviation="6" flood-color="#001a3a" flood-opacity=".22"/>
</filter>
<linearGradient id="whiteGloss" x1="0" y1="0" x2="0" y2="1">
  <stop offset="0" stop-color="#fff" stop-opacity=".85"/>
  <stop offset=".55" stop-color="#fff" stop-opacity=".15"/>
  <stop offset="1" stop-color="#fff" stop-opacity="0"/>
</linearGradient>

<linearGradient id="panel" x1="0" y1="0" x2="1" y2="1">
  <stop offset="0" stop-color="#ffffff"/>
  <stop offset="1" stop-color="#eaf2f9"/>
</linearGradient>
<linearGradient id="accent" x1="0" y1="0" x2="1" y2="1">
  <stop offset="0" stop-color="#0B67B2"/>
  <stop offset="1" stop-color="#053a73"/>
</linearGradient>

</defs>

<g filter="url(#shadow)">
  <rect x="42" y="42" width="428" height="428" rx="54" fill="url(#panel)" stroke="#d5e0ea" stroke-width="4"/>
  <path d="M76 88c92-37 238-48 352 12" fill="none" stroke="#fff" stroke-width="18" stroke-linecap="round" opacity=".75"/>

<g transform="translate(90 61)">
  <path d="M190 32c77 33 112 100 94 173l-92 89-97-94c-11-78 25-141 95-168z" fill="url(#accent)" stroke="#06417f" stroke-width="9"/>
  <ellipse cx="186" cy="124" rx="34" ry="42" fill="#dff3ff" stroke="#052b57" stroke-width="8"/>
  <path d="m99 204-55 40 72 15M274 204l54 40-71 15" fill="#146bbb" stroke="#06417f" stroke-width="8" stroke-linejoin="round"/>
  <path d="m142 289 42 90 42-90" fill="#ffc000" stroke="#ed7d00" stroke-width="8"/>
  <path d="m158 289 26 58 26-58" fill="#ff5a1f"/>
  <ellipse cx="184" cy="394" rx="91" ry="19" fill="#052b57" opacity=".17"/>
</g>

</g>

</svg>
