<svg xmlns="http://www.w3.org/2000/svg" viewBox="0 0 512 512" role="img" aria-label="Lernen auf Augenhöhe">
<title>Lernen auf Augenhöhe</title>

<defs>
  <linearGradient id="blue" x1="0" y1="0" x2="1" y2="1">
    <stop offset="0" stop-color="#168be0"/>
    <stop offset="1" stop-color="#063d79"/>
  </linearGradient>
  <linearGradient id="gold" x1="0" y1="0" x2="1" y2="1">
    <stop offset="0" stop-color="#ffd238"/>
    <stop offset="1" stop-color="#f2a500"/>
  </linearGradient>
  <linearGradient id="paper" x1="0" y1="0" x2="0" y2="1">
    <stop offset="0" stop-color="#ffffff"/>
    <stop offset="1" stop-color="#eaf1f7"/>
  </linearGradient>
  <filter id="shadow" x="-30%" y="-30%" width="170%" height="190%">
    <feDropShadow dx="0" dy="8" stdDeviation="8" flood-color="#001b3a" flood-opacity=".24"/>
  </filter>
</defs>


<g filter="url(#shadow)" fill="none" stroke="#0a4c8e" stroke-width="18" stroke-linecap="round" stroke-linejoin="round">
  <path d="M64 210l77-82 82 49-52 49c-17 16-3 43 20 35l86-32"/>
  <path d="M448 210l-77-82-83 49 52 49"/>
  <path d="m173 281 46 45M221 258l56 55M275 246l54 50M328 233l46 40"/>
  <path d="m65 210 41 39 74-84-41-38zM447 210l-41 39-74-84 41-38z"/>
</g>

</svg>