<svg xmlns="http://www.w3.org/2000/svg" viewBox="0 0 512 512" role="img" aria-label="Telefon">
<title>Telefon</title>

<defs>
  <linearGradient id="blue" x1="0" y1="0" x2="1" y2="1">
    <stop offset="0" stop-color="#168be0"/>
    <stop offset="1" stop-color="#063d79"/>
  </linearGradient>
  <linearGradient id="gold" x1="0" y1="0" x2="1" y2="1">
    <stop offset="0" stop-color="#ffd238"/>
    <stop offset="1" stop-color="#f2a500"/>
  </linearGradient>
  <linearGradient id="paper" x1="0" y1="0" x2="0" y2="1">
    <stop offset="0" stop-color="#ffffff"/>
    <stop offset="1" stop-color="#eaf1f7"/>
  </linearGradient>
  <filter id="shadow" x="-30%" y="-30%" width="170%" height="190%">
    <feDropShadow dx="0" dy="8" stdDeviation="8" flood-color="#001b3a" flood-opacity=".24"/>
  </filter>
</defs>


<circle cx="256" cy="256" r="190" fill="url(#blue)" filter="url(#shadow)"/>
<path d="M151 133c18-18 49-17 65 3l31 40c12 16 10 38-5 51l-25 22c22 43 55 76 98 98l22-25c13-15 35-17 51-5l40 31c20 16 21 47 3 65l-18 18c-23 23-58 31-88 20-123-43-220-140-263-263-11-30-3-65 20-88z" fill="#fff"/>

</svg>